<svg width="18" height="16" viewBox="0 0 18 16" fill="none" xmlns="http://www.w3.org/2000/svg">
    <path fill-rule="evenodd" clip-rule="evenodd" d="M9 0C8.82294 0 8.64586 0.0649791 8.51052 0.195313L3.86719 4.66667H5.82512L9 1.60938L12.1749 4.66667H14.1328L9.48948 0.195313C9.35414 0.0649791 9.17706 0 9 0ZM0.692308 6C0.310154 6 0 6.29867 0 6.66667V8C0 8.368 0.310154 8.66667 0.692308 8.66667H0.807242L1.88356 14.8854C1.99503 15.5281 2.57286 16 3.24925 16H14.7494C15.4265 16 16.0036 15.5281 16.1151 14.8854L17.1928 8.66667H17.3077C17.6898 8.66667 18 8.368 18 8V6.66667C18 6.29867 17.6898 6 17.3077 6H0.692308ZM6.92308 9.33333C6.92308 8.96467 6.61362 8.66667 6.23077 8.66667C5.84792 8.66667 5.53846 8.96467 5.53846 9.33333V13.3333C5.53846 13.702 5.84792 14 6.23077 14C6.61362 14 6.92308 13.702 6.92308 13.3333V9.33333ZM9 8.66667C9.38285 8.66667 9.69231 8.96467 9.69231 9.33333V13.3333C9.69231 13.702 9.38285 14 9 14C8.61715 14 8.30769 13.702 8.30769 13.3333V9.33333C8.30769 8.96467 8.61715 8.66667 9 8.66667ZM12.4615 9.33333C12.4615 8.96467 12.1521 8.66667 11.7692 8.66667C11.3864 8.66667 11.0769 8.96467 11.0769 9.33333V13.3333C11.0769 13.702 11.3864 14 11.7692 14C12.1521 14 12.4615 13.702 12.4615 13.3333V9.33333Z" fill="white"/>
</svg>
