<svg width="20" height="20" viewBox="0 0 20 20" fill="none" xmlns="http://www.w3.org/2000/svg">
    <path d="M19.4701 0.529865C20.1766 1.23635 20.1766 2.38179 19.4701 3.08828L12.5584 10L19.4701 16.9117C20.1766 17.6182 20.1766 18.7636 19.4701 19.4701C18.7637 20.1766 17.6182 20.1766 16.9117 19.4701L10 12.5584L3.08828 19.4701C2.38179 20.1766 1.23635 20.1766 0.529865 19.4701C-0.176622 18.7636 -0.176622 17.6182 0.529865 16.9117L7.44159 10L0.529867 3.08828C-0.17662 2.38179 -0.17662 1.23635 0.529867 0.529865C1.23635 -0.176622 2.3818 -0.176622 3.08828 0.529865L10 7.44158L16.9117 0.529865C17.6182 -0.176622 18.7636 -0.176622 19.4701 0.529865Z" fill="white"/>
</svg>
