<svg width="40" height="40" viewBox="0 0 40 40" fill="none" xmlns="http://www.w3.org/2000/svg">
    <path d="M0 37C0 38.6569 1.34315 40 3 40H37C38.6569 40 40 38.6569 40 37V3C40 1.34315 38.6569 0 37 0H3C1.34315 0 0 1.34315 0 3V37Z" fill="#FF1744"/>
    <path d="M19.8174 32.3117C19.8174 32.3117 6.39551 22.4433 6.39551 15.4417C6.39622 12.1214 8.66212 9.23006 11.8859 8.43568C15.1097 7.64131 18.4596 9.14891 20.0028 12.0887C21.5429 9.14554 24.8939 7.63488 28.1191 8.42989C31.3443 9.2249 33.6094 12.1199 33.6051 15.4417C33.6051 22.4583 19.8174 32.3117 19.8174 32.3117V32.3117Z" fill="white" class="logo-heart"/>
</svg>
