<svg width="14" height="20" viewBox="0 0 14 20" fill="none" xmlns="http://www.w3.org/2000/svg">
    <path fill-rule="evenodd" clip-rule="evenodd" d="M0 6.66667C0 2.99154 3.14111 0 7 0C10.8589 0 14 2.99154 14 6.66667C14 12.4219 7.59985 19.5557 7.32812 19.8568C7.24438 19.9479 7.13501 19.9919 7 20C6.87354 20 6.75562 19.9479 6.67188 19.8568C6.40015 19.5605 0 12.5472 0 6.66667ZM9.25 7.5C9.25 6.11979 8.07422 5 6.625 5C5.17578 5 4 6.11979 4 7.5C4 8.88021 5.17578 10 6.625 10C8.07422 10 9.25 8.88021 9.25 7.5Z" fill="#FF1744"/>
</svg>
