<svg width="17" height="17" viewBox="0 0 17 17" fill="none" xmlns="http://www.w3.org/2000/svg">
    <path fill-rule="evenodd" clip-rule="evenodd" d="M17 8.5C17 13.1944 13.1944 17 8.5 17C3.80558 17 0 13.1944 0 8.5C0 3.80558 3.80558 0 8.5 0C13.1944 0 17 3.80558 17 8.5ZM5.53003 4.61091C5.27619 4.35707 4.86463 4.35707 4.61079 4.61091C4.35695 4.86475 4.35695 5.27631 4.61079 5.53015L7.58064 8.5L4.61079 11.4698C4.35695 11.7237 4.35695 12.1352 4.61079 12.3891C4.86463 12.6429 5.27619 12.6429 5.53003 12.3891L8.49988 9.41924L11.4697 12.3891C11.7236 12.6429 12.1351 12.6429 12.389 12.3891C12.6428 12.1352 12.6428 11.7237 12.389 11.4698L9.41912 8.5L12.389 5.53015C12.6428 5.27631 12.6428 4.86475 12.389 4.61091C12.1351 4.35707 11.7236 4.35707 11.4697 4.61091L8.49988 7.58076L5.53003 4.61091Z" fill="white"/>
</svg>
