<svg width="17" height="17" viewBox="0 0 17 17" fill="none" xmlns="http://www.w3.org/2000/svg">
    <path fill-rule="evenodd" clip-rule="evenodd" d="M8.5 0C3.81581 0 0 3.81581 0 8.5C0 13.1842 3.81581 17 8.5 17C13.1842 17 17 13.1842 17 8.5C17 3.81581 13.1842 0 8.5 0ZM8.38814 3.82324C6.57762 3.92077 5.10001 5.32945 5.10001 7.04155H6.59514C6.59514 5.9146 7.64641 5.03146 8.93129 5.23735C9.84823 5.38363 10.5724 6.21801 10.5432 7.09573C10.5199 7.86509 10.0351 8.35271 9.3226 8.64528L9.31506 8.64841C8.87397 8.83147 8.4562 9.00484 8.10196 9.34963C7.7457 9.69638 7.55296 10.2111 7.55296 10.7583H9.0481C9.0481 10.4441 9.09482 10.3953 9.18827 10.3032C9.27588 10.2165 9.52117 10.0811 9.92416 9.9131C11.0397 9.46341 11.9975 8.47191 12.0384 7.13907C12.0909 5.56243 10.8703 4.13749 9.18243 3.86659C8.91377 3.82866 8.64511 3.81241 8.38814 3.82324ZM7.54999 13.7774V12.27H9.05999V13.7774H7.54999Z" fill="#D9D9D9"/>
</svg>
