<svg width="21" height="12" viewBox="0 0 21 12" fill="none" xmlns="http://www.w3.org/2000/svg">
    <path fill-rule="evenodd" clip-rule="evenodd" d="M10.1962 11.8391H11.4419C11.4419 11.8391 11.8182 11.7978 12.0103 11.5907C12.1871 11.4006 12.1814 11.0436 12.1814 11.0436C12.1814 11.0436 12.1571 9.37208 12.9329 9.12594C13.6976 8.88348 14.6796 10.7414 15.7204 11.4558C16.5075 11.9964 17.1056 11.8779 17.1056 11.8779L19.8887 11.8391C19.8887 11.8391 21.3446 11.7494 20.6542 10.6047C20.5977 10.5111 20.2522 9.75798 18.585 8.21042C16.8399 6.59072 17.0736 6.8527 19.1757 4.05097C20.4559 2.34469 20.9677 1.30299 20.8079 0.85683C20.6554 0.431888 19.7138 0.544206 19.7138 0.544206L16.5802 0.563727C16.5802 0.563727 16.3479 0.532041 16.1757 0.635023C16.0073 0.736024 15.899 0.971411 15.899 0.971411C15.899 0.971411 15.403 2.29179 14.7415 3.41469C13.3462 5.78412 12.7883 5.90917 12.5603 5.76205C12.0298 5.41916 12.1622 4.38453 12.1622 3.64951C12.1622 1.35335 12.5105 0.395957 11.484 0.148122C11.1434 0.0657928 10.8927 0.0114726 10.0216 0.0027022C8.90354 -0.00889741 7.95718 0.00609723 7.42134 0.268645C7.06486 0.443205 6.78987 0.832216 6.95735 0.854567C7.16445 0.882292 7.63353 0.981031 7.88221 1.31968C8.20332 1.75651 8.19201 2.73766 8.19201 2.73766C8.19201 2.73766 8.37647 5.44066 7.76112 5.77648C7.33873 6.00678 6.75931 5.53657 5.51532 3.38696C4.87791 2.28585 4.39667 1.06874 4.39667 1.06874C4.39667 1.06874 4.30387 0.841269 4.13837 0.719615C3.93749 0.572215 3.65684 0.525251 3.65684 0.525251L0.679134 0.544772C0.679134 0.544772 0.232125 0.55722 0.0680325 0.751585C-0.0779528 0.924447 0.0564329 1.28205 0.0564329 1.28205C0.0564329 1.28205 2.38767 6.73614 5.02729 9.48468C7.44765 12.0046 10.1962 11.8391 10.1962 11.8391Z" fill="white"/>
</svg>
