<svg width="103" height="34" viewBox="0 0 103 34" fill="none" xmlns="http://www.w3.org/2000/svg">
    <path fill-rule="evenodd" clip-rule="evenodd" d="M26.4754 5.57639C27.3827 2.18279 30.5427 -0.132066 34.0799 0.00584673C38.7537 0.00584673 42 3.30495 42 8.00662C42 12.7083 38.7359 15.9942 34.0621 15.9942C30.5249 16.1321 27.3649 13.8172 26.4577 10.4236V10.3486H24.6077V15.6413H19V0.336639H24.6255V5.65137H26.4754V5.57639ZM31.8341 7.98897C31.8341 10.1854 32.9636 11.1822 34.0131 11.1822C35.0626 11.1822 36.1922 10.181 36.1922 7.98897C36.1922 5.79692 35.0626 4.79572 34.0131 4.79572C32.9636 4.79572 31.8341 5.79251 31.8341 7.98897Z" fill="black"/>
    <path fill-rule="evenodd" clip-rule="evenodd" d="M95.0508 0C99.72 0 102.978 3.28707 103 7.99678H102.973C102.973 12.7065 99.7156 15.9936 95.0508 15.9936C91.5168 16.1386 88.356 13.8206 87.4477 10.4179V10.3384H85.5969V15.6622H80V0.331358H85.5969V5.65518H87.4566V5.58007L87.4566 5.57978C87.4737 5.506 88.7488 0 95.0508 0ZM95.0064 4.79807C93.9589 4.79807 92.8315 5.78773 92.8315 7.99678C92.8315 10.197 93.9589 11.1955 95.0064 11.1955C96.0538 11.1955 97.1812 10.1926 97.1812 7.99678C97.1812 5.80098 96.0538 4.79807 95.0064 4.79807Z" fill="black"/>
    <path fill-rule="evenodd" clip-rule="evenodd" d="M50.6989 5.45282C50.8543 5.43907 51.8835 5.34801 53.1092 5.34801C56.6357 5.34801 59 7.28693 59 10.1761C59 13.1974 56.3838 15 52 15C49.8611 15 47.4659 14.9318 45 14.7955V0H57.0069V3.87784H50.5726V5.45455H50.6787C50.6793 5.45455 50.6862 5.45394 50.6989 5.45282ZM50.5726 11.446H52.1326C52.9251 11.4956 53.6155 10.9299 53.6926 10.1676C53.6155 9.40537 52.9251 8.8396 52.1326 8.8892H50.5726V11.446Z" fill="black"/>
    <path fill-rule="evenodd" clip-rule="evenodd" d="M7.77184 19C12.4355 19 15 20.8281 15 24.1435V24.1349C15 27.2628 12.6134 29.2827 8.91721 29.2827C8.01825 29.2827 6.86375 29.1761 6.86375 29.1761H6.75424V34H1V19.2045C1.55215 19.1705 4.49544 19 7.77184 19ZM6.75424 25.571H7.89505C8.47489 25.6224 9.03581 25.3625 9.34278 24.9002C9.64975 24.438 9.64975 23.8532 9.34278 23.391C9.03581 22.9287 8.47489 22.6688 7.89505 22.7202H6.75424V25.571Z" fill="black"/>
    <path d="M38.7772 23.6383V19H26.45V23.5821H31.7248L26 29.3573V34H39V29.4135H33.0569L38.7772 23.6383Z" fill="black"/>
    <path d="M54.7772 23.6383V19H42.4457V23.5821H47.7223L42 29.3573V34H55V29.4135H49.0549L54.7772 23.6383Z" fill="black"/>
    <path d="M1.81937 4.56176H3.15125V4.66554C2.79869 10.3824 1.77149 11.551 0.339499 11.551H0V15.6842C0.681253 15.878 1.38295 15.9841 2.08923 16C4.9358 16 8.33079 14.0327 8.33079 4.66103V4.56176H10.5071V15.6571H16V0H1.81937V4.56176Z" fill="black"/>
    <path d="M61.8242 4.56176H63.1608V4.66554C62.8082 10.3824 61.7807 11.551 60.3527 11.551H60V15.6842C60.6815 15.8776 61.3834 15.9837 62.0898 16C64.9371 16 68.3331 14.0327 68.3331 4.66103V4.56176H70.5099V15.6571H76V0H61.8242V4.56176Z" fill="black"/>
    <path d="M16 23.366H17.6177V34H23V19H16V23.366Z" fill="black"/>
    <path fill-rule="evenodd" clip-rule="evenodd" d="M58.6147 23.366V19H68.6136L73 34H66.9212L66.4895 31.8386H63.5148L63.0831 34H57L60.1128 23.366H58.6147ZM65 23.1801L63.9941 28.3674H66.0059L65 23.1801Z" fill="black"/>
</svg>
