<svg width="9" height="9" viewBox="0 0 9 9" fill="none" xmlns="http://www.w3.org/2000/svg">
    <path fill-rule="evenodd" clip-rule="evenodd" d="M1.69373 8.7094C1.30627 9.09687 0.678063 9.09687 0.290599 8.7094C-0.0968661 8.32194 -0.0968661 7.69373 0.290599 7.30627L3.09687 4.5L0.290598 1.69373C-0.0968662 1.30627 -0.0968661 0.678063 0.290599 0.290599C0.678063 -0.0968661 1.30627 -0.0968661 1.69373 0.290599L4.5 3.09687L7.30627 0.290598C7.69373 -0.0968662 8.32194 -0.0968661 8.7094 0.290599C9.09687 0.678063 9.09687 1.30627 8.7094 1.69373L5.90313 4.5L8.7094 7.30627C9.09687 7.69373 9.09687 8.32194 8.7094 8.7094C8.32194 9.09687 7.69373 9.09687 7.30627 8.7094L4.5 5.90313L1.69373 8.7094Z" fill="#2E2E2E"/>
</svg>
