<svg width="18" height="19" viewBox="0 0 18 19" fill="none" xmlns="http://www.w3.org/2000/svg">
    <path fill-rule="evenodd" clip-rule="evenodd" d="M0 13.6868C0 16.5076 2.30177 18.7929 5.14286 18.7929H12.8571C15.6982 18.7929 18 16.5076 18 13.6868V6.02757C18 3.20677 15.6982 0.921448 12.8571 0.921448H5.14286C2.30177 0.921448 0 3.20677 0 6.02757V13.6868ZM12.8571 17.5163H5.14286C3.01185 17.5163 1.28571 15.8025 1.28571 13.6868V6.02757C1.28571 3.91178 3.01185 2.19798 5.14286 2.19798H12.8571C14.9882 2.19798 16.7143 3.91178 16.7143 6.02757V13.6868C16.7143 15.8025 14.9882 17.5163 12.8571 17.5163ZM12.2143 9.85716C12.2143 8.09541 10.7744 6.66584 9 6.66584C7.22558 6.66584 5.78571 8.09541 5.78571 9.85716C5.78571 11.6189 7.22558 13.0485 9 13.0485C10.7744 13.0485 12.2143 11.6189 12.2143 9.85716ZM9 14.325C11.4845 14.325 13.5 12.3239 13.5 9.85716C13.5 7.3904 11.4845 5.38931 9 5.38931C6.5155 5.38931 4.5 7.3904 4.5 9.85716C4.5 12.3239 6.5155 14.325 9 14.325Z" fill="white"/>
</svg>
