<svg width="98" height="36" viewBox="0 0 98 36" fill="none" xmlns="http://www.w3.org/2000/svg">
    <path d="M98 0H85V3H95V33H85V36H98V0Z" fill="white"/>
    <path d="M13 36V33H3V3H13V0H0V36H13Z" fill="white"/>
    <path d="M15.0885 23V18.702H19.5125V23H21.5145V13.2H19.5125V16.868H15.0885V13.2H13.0725V23H15.0885Z" fill="white"/>
    <path d="M26.0579 20.396C25.4839 19.794 25.2039 19.024 25.2039 18.1C25.2039 17.176 25.4839 16.406 26.0579 15.804C26.6319 15.202 27.3599 14.894 28.2279 14.894C29.0959 14.894 29.8099 15.202 30.3839 15.804C30.9579 16.406 31.2519 17.176 31.2519 18.1C31.2519 19.024 30.9579 19.794 30.3839 20.396C29.8099 20.998 29.0959 21.306 28.2279 21.306C27.3599 21.306 26.6319 20.998 26.0579 20.396ZM23.1459 18.1C23.1459 19.514 23.6219 20.718 24.5879 21.712C25.5539 22.706 26.7719 23.196 28.2279 23.196C29.6839 23.196 30.8879 22.706 31.8539 21.712C32.8199 20.718 33.3099 19.514 33.3099 18.1C33.3099 16.672 32.8199 15.468 31.8539 14.488C30.8879 13.494 29.6839 13.004 28.2279 13.004C26.7719 13.004 25.5539 13.494 24.5879 14.488C23.6219 15.468 23.1459 16.672 23.1459 18.1Z" fill="white"/>
    <path d="M39.8583 23C40.8943 23 41.7203 22.748 42.3363 22.23C42.9523 21.712 43.2603 21.04 43.2603 20.214C43.2603 19.5 43.0643 18.926 42.6723 18.464C42.2803 18.002 41.8183 17.708 41.2723 17.596C41.9443 17.316 42.5043 16.644 42.5043 15.65C42.5043 14.082 41.3283 13.2 39.5363 13.2H34.9303V23H39.8583ZM36.9463 18.702H39.4803C40.4743 18.702 41.0763 19.164 41.0763 19.99C41.0763 20.816 40.4743 21.264 39.4803 21.264H36.9463V18.702ZM36.9463 14.88H39.2143C40.0543 14.88 40.5583 15.286 40.5583 15.972C40.5583 16.644 40.0543 17.036 39.2143 17.036H36.9463V14.88Z" fill="white"/>
    <path d="M46.4458 23L51.2478 16.574V23H53.2498V13.2H51.5138L46.7678 19.584V13.2H44.7518V23H46.4458Z" fill="white"/>
    <path d="M57.2319 23V18.702H61.6559V23H63.6579V13.2H61.6559V16.868H57.2319V13.2H55.2159V23H57.2319Z" fill="white"/>
    <path d="M67.6413 23V18.478L71.8553 23H74.4313L69.5593 17.694L73.7173 13.2H71.2533L67.6413 17.064V13.2H65.6253V23H67.6413Z" fill="white"/>
    <path d="M76.57 23L77.536 20.732H81.68L82.646 23H84.788L80.588 13.144H78.656L74.456 23H76.57ZM79.608 15.664L81.036 19.066H78.166L79.608 15.664Z" fill="white"/>
</svg>
